<?xml version="1.0" encoding="UTF-8" standalone="no"?>
<!DOCTYPE svg PUBLIC "-//W3C//DTD SVG 1.1//EN" "http://www.w3.org/Graphics/SVG/1.1/DTD/svg11.dtd">
<svg width="100%" height="100%" viewBox="0 0 2048 2048" version="1.1" xmlns="http://www.w3.org/2000/svg" xmlns:xlink="http://www.w3.org/1999/xlink" xml:space="preserve" xmlns:serif="http://www.serif.com/" style="fill-rule:evenodd;clip-rule:evenodd;stroke-linejoin:round;stroke-miterlimit:2;">
    <g id="document" transform="matrix(1.27884,0,0,1.27248,1024,1027.29)">
        <g transform="matrix(1,0,0,1,133.464,-2.58521)">
            <path d="M-324.703,-458.515L19.184,-458.515C29.73,-458.515 38.288,-467.074 38.288,-477.62L38.288,-534.934L-343.807,-534.934L-343.807,-477.62C-343.807,-467.074 -335.248,-458.515 -324.703,-458.515Z" style="fill:rgb(67,99,216);fill-rule:nonzero;"/>
        </g>
        <g transform="matrix(1,0,0,1,133.464,-2.58521)">
            <rect x="-210.074" y="38.21" width="38.21" height="38.21" style="fill:rgb(67,99,216);fill-rule:nonzero;"/>
        </g>
        <g transform="matrix(1,0,0,1,133.464,-2.58521)">
            <path d="M1.989,230.518L-106.01,284.661C-108.666,285.941 -111.589,286.591 -114.55,286.572C-125.096,286.572 -133.655,278.032 -133.655,267.467C-133.655,264.506 -132.967,261.564 -131.649,258.927L-77.601,150.928C-76.684,149.094 -75.481,147.413 -74.01,145.961L172.022,-100.147L172.022,-477.62C172.022,-509.276 146.364,-534.934 114.708,-534.934L76.498,-534.934L76.498,-477.62C76.498,-445.963 50.84,-420.305 19.184,-420.305L-324.703,-420.305C-356.359,-420.305 -382.017,-445.963 -382.017,-477.62L-382.017,-534.934L-420.227,-534.934C-451.883,-534.934 -477.541,-509.276 -477.541,-477.62L-477.541,477.62C-477.541,509.276 -451.883,534.934 -420.227,534.934L114.708,534.934C146.364,534.934 172.022,509.276 172.022,477.62L172.022,61.938L7.033,226.927C5.562,228.398 3.862,229.601 1.989,230.518L1.989,230.518ZM-57.236,-38.21L-324.703,-38.21L-324.703,-76.419L-57.236,-76.419L-57.236,-38.21ZM-382.017,229.258L-382.017,191.048L-152.76,191.048L-152.76,229.258L-382.017,229.258ZM-152.76,267.467L-152.76,305.677L-305.598,305.677L-305.598,267.467L-152.76,267.467ZM-343.807,267.467L-343.807,305.677L-382.017,305.677L-382.017,267.467L-343.807,267.467ZM-248.283,114.629L-248.283,0L-133.655,0L-133.655,114.629L-248.283,114.629ZM-19.026,-305.677L95.603,-305.677L95.603,-267.467L-19.026,-267.467L-19.026,-305.677ZM-19.026,-229.258L95.603,-229.258L95.603,-191.048L-19.026,-191.048L-19.026,-229.258ZM-19.026,-152.838L95.603,-152.838L95.603,-114.629L-19.026,-114.629L-19.026,-152.838ZM-401.122,-305.677L-57.236,-305.677L-57.236,-114.629L-401.122,-114.629L-401.122,-305.677ZM-401.122,-76.419L-362.912,-76.419L-362.912,-38.21L-401.122,-38.21L-401.122,-76.419ZM-401.122,0L-286.493,0L-286.493,114.629L-401.122,114.629L-401.122,0ZM76.498,477.62C76.498,488.166 67.939,496.725 57.393,496.725L-362.912,496.725C-373.458,496.725 -382.017,488.166 -382.017,477.62C-382.017,467.074 -373.458,458.515 -362.912,458.515L57.393,458.515C67.939,458.515 76.498,467.074 76.498,477.62Z" style="fill:rgb(67,99,216);fill-rule:nonzero;"/>
        </g>
        <g transform="matrix(1,0,0,1,133.464,-2.58521)">
            <rect x="-362.912" y="38.21" width="38.209" height="38.21" style="fill:rgb(67,99,216);fill-rule:nonzero;"/>
        </g>
        <g transform="matrix(1,0,0,1,133.464,-2.58521)">
            <rect x="-362.912" y="-267.467" width="267.467" height="114.629" style="fill:rgb(67,99,216);fill-rule:nonzero;"/>
        </g>
        <g transform="matrix(1,0,0,1,133.464,-2.58521)">
            <path d="M466.35,-259.386C481.271,-274.307 481.271,-298.512 466.35,-313.433C451.43,-328.354 427.224,-328.354 412.303,-313.433L358.275,-259.386L412.303,-205.357L466.35,-259.386Z" style="fill:rgb(67,99,216);fill-rule:nonzero;"/>
        </g>
        <g transform="matrix(1,0,0,1,133.464,-2.58521)">
            <path d="M-44.817,170.72L-71.832,224.749L-17.803,197.735L344.748,-164.798L344.768,-164.817L344.787,-164.836L371.782,-191.85L344.768,-218.865L-44.817,170.72Z" style="fill:rgb(67,99,216);fill-rule:nonzero;"/>
        </g>
        <g transform="matrix(1,0,0,1,133.464,-2.58521)">
            <path d="M385.289,-97.282L290.72,-2.713C283.135,4.623 282.925,16.717 290.262,24.301C297.598,31.886 309.691,32.096 317.276,24.76C317.429,24.607 317.581,24.454 317.734,24.301L425.81,-83.775C433.261,-91.225 433.261,-103.338 425.81,-110.789L392.529,-144.088L365.496,-117.055L385.289,-97.282Z" style="fill:rgb(67,99,216);fill-rule:nonzero;"/>
        </g>
    </g>
</svg>
